<svg xmlns="http://www.w3.org/2000/svg" width="42.251" height="48.675" viewBox="0 0 42.251 48.675">
  <g id="apply" transform="translate(-10.799 -7.719)">
    <path id="Path_296" data-name="Path 296" d="M52.9,43.7V26c0-2.2-1-3.6-2.5-5.1L39.9,10.4C37.4,7.9,35.1,8,31.7,8H21.6c-2,0-4.5-.4-6.5.2a5.667,5.667,0,0,0-3.9,4.4c-.5,2.8-.1,5.9-.1,8.7v9.6c0,6.6-.1,13.1,0,19.7a5.445,5.445,0,0,0,5.5,5.6c5.1.1,10.2,0,15.3,0,5.2,0,10.3.1,15.5,0a5.529,5.529,0,0,0,5.5-5.7V43.7ZM38.3,13l1.2,1.2,2.2,2.2,6.1,6.1H40.4a2.051,2.051,0,0,1-2.1-2.3V13Zm9.2,40.1c-4.1.2-8.3,0-12.4,0H18c-1.7,0-3.7,0-3.9-2.4-.1-1.2,0-2.4,0-3.6V13.2c.1-2.8,3.2-2.3,5.2-2.3h9.4c2.2,0,4.4-.1,6.5,0h.1v9.2a5.753,5.753,0,0,0,.5,2.6,5.251,5.251,0,0,0,4.1,2.8c1.3.1,2.7,0,4.1,0h5.9c.1,1.6,0,3.3,0,4.9V48.6c0,1.8.3,4.4-2.4,4.5Z" fill="#fff"/>
    <path id="Path_296_-_Outline" data-name="Path 296 - Outline" d="M42.228,56.394h0c-1.715,0-3.457-.011-5.141-.022s-3.448-.022-5.184-.022c-1.7,0-3.428.011-5.1.022s-3.4.022-5.1.022c-1.908,0-3.577-.015-5.1-.044a5.9,5.9,0,0,1-4.054-1.682A5.725,5.725,0,0,1,10.95,50.6c-.067-4.4-.044-8.829-.022-13.116.011-2.154.022-4.381.022-6.584V21.3c0-.848-.036-1.705-.074-2.613a28.507,28.507,0,0,1,.177-6.114A6.334,6.334,0,0,1,12.436,9.74,5.124,5.124,0,0,1,15.06,8.055a9.722,9.722,0,0,1,2.808-.336c.664,0,1.333.035,1.981.068.617.032,1.2.062,1.751.062H32.438a16.054,16.054,0,0,1,4.027.337,7.555,7.555,0,0,1,3.541,2.107l10.5,10.5C52.077,22.364,53.05,23.783,53.05,26V50.5A5.681,5.681,0,0,1,47.4,56.35C45.847,56.38,44.154,56.394,42.228,56.394ZM31.9,56.05c1.738,0,3.491.011,5.186.022s3.425.022,5.14.022h0c1.925,0,3.615-.015,5.169-.044A5.389,5.389,0,0,0,52.75,50.5V26c0-2.113-.94-3.478-2.456-4.994l-10.5-10.5c-2.243-2.243-4.256-2.357-7.356-2.357H21.6c-.559,0-1.146-.03-1.767-.063-.644-.033-1.309-.068-1.965-.068a9.432,9.432,0,0,0-2.725.324l-.007,0a5.533,5.533,0,0,0-3.789,4.284,28.292,28.292,0,0,0-.172,6.045c.037.871.074,1.771.074,2.625v9.6c0,2.2-.011,4.432-.022,6.586-.022,4.286-.044,8.717.022,13.112A5.281,5.281,0,0,0,16.6,56.05c1.522.03,3.19.044,5.1.044,1.7,0,3.428-.011,5.1-.022S30.2,56.05,31.9,56.05Zm11.474-2.711c-1.386,0-2.8-.023-4.162-.045s-2.751-.044-4.112-.044H18c-1.71,0-3.838,0-4.049-2.538a21.852,21.852,0,0,1-.023-2.417c.011-.392.022-.8.022-1.2V13.195c.078-2.185,1.872-2.479,3.617-2.479.315,0,.627.009.93.018.283.008.551.016.8.016h9.4c.736,0,1.483-.011,2.205-.022s1.449-.022,2.165-.022c.806,0,1.5.015,2.133.044h.246V20.1a5.554,5.554,0,0,0,.484,2.533,5.131,5.131,0,0,0,3.98,2.718c.384.029.814.044,1.315.044.446,0,.91-.011,1.359-.022s.939-.023,1.411-.023h6.041l.009.141c.067,1.077.044,2.206.022,3.3-.011.533-.022,1.083-.022,1.612V48.6c0,.159,0,.321,0,.494.024,1.713.058,4.06-2.549,4.156C46.279,53.31,44.927,53.339,43.374,53.339ZM14.25,13.2V47.1c0,.4-.011.81-.022,1.2a21.628,21.628,0,0,0,.022,2.383C14.438,52.95,16.33,52.95,18,52.95H35.1c1.364,0,2.764.023,4.117.044s2.773.045,4.157.045c1.548,0,2.895-.029,4.119-.089,2.316-.086,2.287-2.087,2.262-3.852,0-.173,0-.337,0-.5V30.4c0-.531.011-1.084.022-1.618.021-1.038.043-2.11-.013-3.132H44c-.469,0-.944.011-1.4.022s-.916.022-1.366.022c-.51,0-.948-.015-1.341-.045h-.006a5.362,5.362,0,0,1-4.217-2.882A6.011,6.011,0,0,1,35.15,20.1V11.048c-.614-.028-1.3-.042-2.08-.042-.714,0-1.449.011-2.161.022s-1.472.022-2.21.022H19.3c-.256,0-.526-.008-.812-.016s-.611-.018-.921-.018C15.886,11.015,14.32,11.28,14.25,13.2ZM48.162,22.65H40.4a2.132,2.132,0,0,1-1.689-.715A2.636,2.636,0,0,1,38.15,20.2V12.638ZM38.45,13.362V20.2a1.89,1.89,0,0,0,1.95,2.15h7.038Z" fill="#fff"/>
    <path id="Path_297" data-name="Path 297" d="M32.5,27.5a1.489,1.489,0,0,0-2.2.1l-1.7,1.7-3.4,3.4c-1.4,1.4.8,3.5,2.1,2.1L30,32.1v6.6a1.5,1.5,0,0,0,3,0V32.1l2.7,2.7c1.4,1.4,3.5-.8,2.1-2.1l-3.1-3.1A21.835,21.835,0,0,0,32.5,27.5Z" fill="#fff"/>
    <path id="Path_297_-_Outline" data-name="Path 297 - Outline" d="M31.4,26.912h0a2.063,2.063,0,0,1,1.191.466,14.744,14.744,0,0,1,1.7,1.584c.171.177.348.36.52.532l3.1,3.1a1.463,1.463,0,0,1,.4,1.671A1.773,1.773,0,0,1,36.71,35.4a1.567,1.567,0,0,1-1.116-.493L33.15,32.462V38.7a1.65,1.65,0,0,1-3.3,0V32.462L27.408,34.9a1.49,1.49,0,0,1-1.1.507,1.78,1.78,0,0,1-1.582-1.106,1.515,1.515,0,0,1,.372-1.712l5.1-5.1A1.693,1.693,0,0,1,31.4,26.912ZM36.71,35.1a1.487,1.487,0,0,0,1.312-.946A1.176,1.176,0,0,0,37.7,32.81l0,0-3.1-3.1c-.174-.174-.352-.358-.524-.536a14.527,14.527,0,0,0-1.66-1.55,1.784,1.784,0,0,0-1.014-.408h0a1.413,1.413,0,0,0-.99.494l-5.1,5.1A1.21,1.21,0,0,0,25,34.191a1.493,1.493,0,0,0,1.305.921,1.2,1.2,0,0,0,.886-.414l0,0,2.956-2.956V38.7a1.35,1.35,0,0,0,2.7,0V31.738l2.956,2.956A1.274,1.274,0,0,0,36.71,35.1Z" fill="#fff"/>
    <path id="Path_298" data-name="Path 298" d="M27.4,45.4h8a1.5,1.5,0,0,0,0-3h-8a1.5,1.5,0,0,0,0,3Z" fill="#fff"/>
    <path id="Path_298_-_Outline" data-name="Path 298 - Outline" d="M35.4,45.55h-8a1.683,1.683,0,0,1-1.649-1.633V43.9a1.693,1.693,0,0,1,1.65-1.65h8a1.65,1.65,0,1,1,0,3.3Zm-9.35-1.658A1.378,1.378,0,0,0,27.4,45.25h8a1.35,1.35,0,1,0,0-2.7h-8A1.386,1.386,0,0,0,26.05,43.892Z" fill="#fff"/>
    <path id="Path_299" data-name="Path 299" d="M35.5,47.1h-8a1.5,1.5,0,0,0,0,3h8A1.538,1.538,0,0,0,37,48.6,1.473,1.473,0,0,0,35.5,47.1Z" fill="#fff"/>
    <path id="Path_299_-_Outline" data-name="Path 299 - Outline" d="M27.5,46.95h8a1.614,1.614,0,0,1,1.65,1.65,1.693,1.693,0,0,1-1.65,1.65h-8a1.65,1.65,0,1,1,0-3.3Zm8,3a1.385,1.385,0,0,0,1.35-1.35,1.32,1.32,0,0,0-1.35-1.35h-8a1.35,1.35,0,0,0,0,2.7Z" fill="#fff"/>
  </g>
</svg>
