<svg xmlns="http://www.w3.org/2000/svg" width="43.923" height="43.923" viewBox="0 0 43.923 43.923">
  <g id="Approval" transform="translate(-18.75 -18.75)">
    <path id="Path_302" data-name="Path 302" d="M273.062,420.271H252a1.25,1.25,0,0,1-1.25-1.25v-3.51a4.766,4.766,0,0,1,4.76-4.76h14.042a4.766,4.766,0,0,1,4.76,4.76v3.51A1.25,1.25,0,0,1,273.062,420.271Zm-19.812-2.5h18.562v-2.26a2.263,2.263,0,0,0-2.26-2.26H255.51a2.263,2.263,0,0,0-2.26,2.26Z" transform="translate(-211.64 -357.598)" fill="#ffce34"/>
    <path id="Path_303" data-name="Path 303" d="M33.34,62.673H20a1.25,1.25,0,0,1-1.25-1.25V20A1.25,1.25,0,0,1,20,18.75H50.892A1.25,1.25,0,0,1,52.142,20v6.319a1.25,1.25,0,1,1-2.5,0V21.25H21.25V60.173H33.34a1.25,1.25,0,0,1,0,2.5Z" fill="#3c69a8"/>
    <path id="Path_304" data-name="Path 304" d="M150.633,118.516a1.246,1.246,0,0,1-.884-.366l-2.633-2.633a1.25,1.25,0,0,1,1.768-1.768l1.749,1.749,4.382-4.382a1.25,1.25,0,0,1,1.768,1.768l-5.266,5.266A1.246,1.246,0,0,1,150.633,118.516Z" transform="translate(-116.767 -83.926)" fill="#3c69a8"/>
    <path id="Line_37" data-name="Line 37" d="M9,1.25H0A1.25,1.25,0,0,1-1.25,0,1.25,1.25,0,0,1,0-1.25H9A1.25,1.25,0,0,1,10.25,0,1.25,1.25,0,0,1,9,1.25Z" transform="translate(27.711 44.711)" fill="#3c69a8"/>
    <path id="Line_38" data-name="Line 38" d="M6,1.25H0A1.25,1.25,0,0,1-1.25,0,1.25,1.25,0,0,1,0-1.25H6A1.25,1.25,0,0,1,7.25,0,1.25,1.25,0,0,1,6,1.25Z" transform="translate(27.711 50.711)" fill="#3c69a8"/>
    <path id="Path_305" data-name="Path 305" d="M313.754,194.313a1.25,1.25,0,0,1-1.239-1.1c-.181-1.444-1.765-14.164-1.765-15.952a6.516,6.516,0,1,1,13.031,0c0,1.788-1.584,14.507-1.765,15.952a1.25,1.25,0,1,1-2.481-.31c.7-5.611,1.746-14.406,1.746-15.642a4.016,4.016,0,1,0-8.031,0c0,1.235,1.044,10.031,1.746,15.642a1.25,1.25,0,0,1-1.085,1.4A1.264,1.264,0,0,1,313.754,194.313Z" transform="translate(-266.374 -138.66)" fill="#ffce34"/>
  </g>
</svg>
