<svg xmlns="http://www.w3.org/2000/svg" width="45.162" height="45.159" viewBox="0 0 45.162 45.159">
  <g id="approved_3_" data-name="approved (3)" transform="translate(-2 -2)">
    <path id="Path_310" data-name="Path 310" d="M19.9,2A10.9,10.9,0,1,0,30.8,12.9,10.907,10.907,0,0,0,19.9,2Zm0,3.115A7.787,7.787,0,1,1,12.115,12.9,7.789,7.789,0,0,1,19.9,5.115Z" transform="translate(3.901 0)" fill="#3c69a8" fill-rule="evenodd"/>
    <path id="Path_311" data-name="Path 311" d="M5.115,33.573H23.8a1.557,1.557,0,0,1,0,3.115H3.557A1.558,1.558,0,0,1,2,35.13V32.016A14.015,14.015,0,0,1,16.016,18H23.8a1.557,1.557,0,1,1,0,3.115H16.016a10.9,10.9,0,0,0-10.9,10.9Z" transform="translate(0 8.917)" fill="#3c69a8" fill-rule="evenodd"/>
    <path id="Path_312" data-name="Path 312" d="M28.123,18A10.121,10.121,0,1,0,38.244,28.121,10.126,10.126,0,0,0,28.123,18Zm0,3.115a7.006,7.006,0,1,1-7.006,7.006A7.01,7.01,0,0,1,28.123,21.115Z" transform="translate(8.918 8.917)" fill="#ffce34" fill-rule="evenodd"/>
    <path id="Path_313" data-name="Path 313" d="M25.8,25.993l3.425-3.521a1.557,1.557,0,1,1,2.233,2.171L26.92,29.312a1.557,1.557,0,0,1-2.233,0l-3.245-3.337A1.557,1.557,0,0,1,23.675,23.8Z" transform="translate(10.59 11.146)" fill="#ffce34" fill-rule="evenodd"/>
  </g>
</svg>
