<svg xmlns="http://www.w3.org/2000/svg" width="49.377" height="49.375" viewBox="0 0 49.377 49.375">
  <g id="customer_3_" data-name="customer (3)" transform="translate(0 -0.013)">
    <g id="Group_168" data-name="Group 168" transform="translate(0 22.768)">
      <g id="Group_167" data-name="Group 167" transform="translate(0)">
        <path id="Path_300" data-name="Path 300" d="M47.833,237.563a4.338,4.338,0,0,0-5.973.361l-4.252,4.564a4.348,4.348,0,0,0-4.145-3.053H25.876c-.576,0-.769-.22-1.769-.99a10.147,10.147,0,0,0-13.342.032l-2.789,2.455A4.322,4.322,0,0,0,4,240.881l-3.2,1.6a1.448,1.448,0,0,0-.647,1.941L8.832,261.78a1.448,1.448,0,0,0,1.941.647l3.2-1.6a4.336,4.336,0,0,0,2.4-4.034H33.463a10.174,10.174,0,0,0,8.1-4.05l6.944-9.26A4.328,4.328,0,0,0,47.833,237.563ZM12.678,258.239l-1.9.953L3.387,244.421l1.906-.953a1.446,1.446,0,0,1,1.94.647L13.325,256.3A1.447,1.447,0,0,1,12.678,258.239Zm33.516-16.492-6.944,9.26a7.266,7.266,0,0,1-5.786,2.893H15.36L9.939,243.058l2.738-2.41a7.25,7.25,0,0,1,9.557,0c1.6,1.413,2.6,1.68,3.642,1.68h7.587a1.447,1.447,0,1,1,0,2.893H26.075a1.447,1.447,0,0,0,0,2.893h8.357a4.352,4.352,0,0,0,3.176-1.382l6.369-6.836a1.446,1.446,0,0,1,2.217,1.852Z" transform="translate(0 -235.959)" fill="#fff"/>
      </g>
    </g>
    <g id="Group_170" data-name="Group 170" transform="translate(17.455 0.013)">
      <g id="Group_169" data-name="Group 169" transform="translate(0 0)">
        <path id="Path_301" data-name="Path 301" d="M193.955,9.884a5.763,5.763,0,0,0,1.6-3.989A5.865,5.865,0,0,0,189.77.013,5.961,5.961,0,0,0,183.887,5.9a5.679,5.679,0,0,0,1.654,4,8.825,8.825,0,0,0-4.547,7.668v1.447a1.447,1.447,0,0,0,1.447,1.447H197a1.447,1.447,0,0,0,1.447-1.447V17.564A8.818,8.818,0,0,0,193.955,9.884ZM189.77,2.906A2.982,2.982,0,0,1,192.663,5.9a2.9,2.9,0,0,1-2.893,2.893A2.982,2.982,0,0,1,186.78,5.9,3.068,3.068,0,0,1,189.77,2.906Zm-5.882,14.658a5.961,5.961,0,0,1,5.882-5.882,5.841,5.841,0,0,1,5.786,5.882Z" transform="translate(-180.994 -0.013)" fill="#fff"/>
      </g>
    </g>
  </g>
</svg>
