<svg xmlns="http://www.w3.org/2000/svg" width="43.273" height="49.931" viewBox="0 0 43.273 49.931">
  <g id="exam-results_1_" data-name="exam-results (1)" transform="translate(-4 -1)">
    <path id="Path_289" data-name="Path 289" d="M22.315,10.329H10.664a1.664,1.664,0,0,1,0-3.329H22.315a1.664,1.664,0,1,1,0,3.329Z" transform="translate(3.322 3.986)" fill="#fff"/>
    <path id="Path_290" data-name="Path 290" d="M27.308,15.329H10.664a1.664,1.664,0,0,1,0-3.329H27.308a1.664,1.664,0,1,1,0,3.329Z" transform="translate(3.322 7.308)" fill="#fff"/>
    <path id="Path_291" data-name="Path 291" d="M20.418,19.329H10.664a1.664,1.664,0,0,1,0-3.329h9.753a1.664,1.664,0,0,1,0,3.329Z" transform="translate(3.322 9.965)" fill="#fff"/>
    <path id="Path_292" data-name="Path 292" d="M16.423,23.329H10.664a1.664,1.664,0,0,1,0-3.329h5.759a1.664,1.664,0,1,1,0,3.329Z" transform="translate(3.322 12.623)" fill="#fff"/>
    <path id="Path_293" data-name="Path 293" d="M19.745,45.938H12.322A8.331,8.331,0,0,1,4,37.616V9.322A8.331,8.331,0,0,1,12.322,1H32.294a8.331,8.331,0,0,1,8.322,8.322V22.97a1.664,1.664,0,0,1-3.329,0V9.322a5,5,0,0,0-4.993-4.993H12.322A5,5,0,0,0,7.329,9.322V37.616a5,5,0,0,0,4.993,4.993h7.423a1.664,1.664,0,1,1,0,3.329Z" transform="translate(0 0)" fill="#fff"/>
    <path id="Path_294" data-name="Path 294" d="M27.651,40.3A11.651,11.651,0,1,1,39.3,28.651,11.664,11.664,0,0,1,27.651,40.3Zm0-19.972a8.322,8.322,0,1,0,8.322,8.322A8.331,8.331,0,0,0,27.651,20.329Z" transform="translate(7.972 10.63)" fill="#fff"/>
    <path id="Path_295" data-name="Path 295" d="M23.883,29.633a1.66,1.66,0,0,1-1.177-.488l-2.219-2.219a1.664,1.664,0,0,1,2.353-2.353l1.042,1.042,3.262-3.26A1.664,1.664,0,0,1,29.5,24.708L25.06,29.147a1.66,1.66,0,0,1-1.177.488Z" transform="translate(10.63 13.863)" fill="#fff"/>
  </g>
</svg>
