<svg id="g293" xmlns="http://www.w3.org/2000/svg" xmlns:xlink="http://www.w3.org/1999/xlink" width="45.83" height="45.83" viewBox="0 0 45.83 45.83">
  <defs>
    <clipPath id="clip-path">
      <path id="path297" d="M0-682.665H45.83v45.83H0Z" transform="translate(0 682.665)" fill="#3c69a8"/>
    </clipPath>
  </defs>
  <g id="g295" clip-path="url(#clip-path)">
    <g id="g301" transform="translate(1.79 1.79)">
      <path id="path303" d="M-232.592-545.285a1.256,1.256,0,0,1-.192-.015,21.033,21.033,0,0,1-12.679-7.032,21.026,21.026,0,0,1-5.119-13.752,20.9,20.9,0,0,1,1.653-8.187,20.961,20.961,0,0,1,4.507-6.685,20.961,20.961,0,0,1,6.685-4.507,20.9,20.9,0,0,1,8.187-1.653,21.011,21.011,0,0,1,13.891,5.239,21.014,21.014,0,0,1,6.949,12.939,1.25,1.25,0,0,1-1.071,1.407,1.25,1.25,0,0,1-1.407-1.071,18.585,18.585,0,0,0-18.363-16.015,18.553,18.553,0,0,0-18.532,18.532A18.65,18.65,0,0,0-232.4-547.77a1.25,1.25,0,0,1,1.045,1.426A1.25,1.25,0,0,1-232.592-545.285Z" transform="translate(249.333 585.867)" fill="#3c69a8"/>
    </g>
    <g id="g305" transform="translate(14.948 8.235)">
      <path id="path307" d="M-98.666,21.3a1.246,1.246,0,0,1-.878-.36,1.25,1.25,0,0,1-.012-1.768l6.264-6.348V0a1.25,1.25,0,0,1,1.25-1.25A1.25,1.25,0,0,1-90.793,0V13.337a1.25,1.25,0,0,1-.36.878l-6.624,6.713A1.246,1.246,0,0,1-98.666,21.3Z" transform="translate(98.666)" fill="#3c69a8"/>
    </g>
    <g id="g309" transform="translate(23.623 23.452)">
      <path id="path311" d="M-293.821-159.5a11.468,11.468,0,0,1-8.163-3.381,11.468,11.468,0,0,1-3.381-8.163,11.468,11.468,0,0,1,3.381-8.163,11.468,11.468,0,0,1,8.163-3.381,11.566,11.566,0,0,1,3.111.424,1.25,1.25,0,0,1,.868,1.54,1.25,1.25,0,0,1-1.54.868,9.067,9.067,0,0,0-2.439-.332,9.054,9.054,0,0,0-9.044,9.044A9.054,9.054,0,0,0-293.821-162a9.038,9.038,0,0,0,8.893-7.391,1.25,1.25,0,0,1,1.456-1,1.25,1.25,0,0,1,1,1.456A11.538,11.538,0,0,1-293.821-159.5Z" transform="translate(304.115 181.333)" fill="#ffce34"/>
    </g>
    <g id="g313" transform="translate(30.337 27.838)">
      <path id="path315" d="M-180.414,9.379a2.585,2.585,0,0,1-1.833-.757l-2.636-2.636a1.25,1.25,0,0,1,0-1.768,1.25,1.25,0,0,1,1.768,0l2.636,2.636a.093.093,0,0,0,.131,0l7.823-7.743a1.25,1.25,0,0,1,1.768.009,1.25,1.25,0,0,1-.009,1.768l-7.823,7.743A2.584,2.584,0,0,1-180.414,9.379Z" transform="translate(184)" fill="#ffce34"/>
    </g>
  </g>
</svg>
