<svg xmlns="http://www.w3.org/2000/svg" xmlns:xlink="http://www.w3.org/1999/xlink" width="40.336" height="45.072" viewBox="0 0 40.336 45.072">
  <defs>
    <clipPath id="clip-path">
      <rect id="Rectangle_12596" data-name="Rectangle 12596" width="40.336" height="45.072" fill="#3c69a8"/>
    </clipPath>
  </defs>
  <g id="Group_172" data-name="Group 172" transform="translate(0 0)">
    <g id="Group_171" data-name="Group 171" transform="translate(0 0)" clip-path="url(#clip-path)">
      <path id="Path_318" data-name="Path 318" d="M5.958,45.072A5.964,5.964,0,0,1,0,39.115V5.958A5.965,5.965,0,0,1,5.958,0H20.217a.87.87,0,0,1,.269.1l.27.158h.228A1.343,1.343,0,0,1,21.158.4L35.343,14.589a1.061,1.061,0,0,1,.114.135v.115l.064.184a1.708,1.708,0,0,1,.078.328v4.813a1.224,1.224,0,0,1-1.219,1.222,1.221,1.221,0,0,1-1.222-1.222V16.648H24.9a5.965,5.965,0,0,1-5.961-5.954V2.441H5.958A3.521,3.521,0,0,0,2.441,5.958V39.115a3.521,3.521,0,0,0,3.517,3.517H17.8a1.22,1.22,0,0,1,0,2.441Zm15.427-34.38A3.52,3.52,0,0,0,24.9,14.208h6.537L21.385,4.154Zm-10.69,24.9a1.221,1.221,0,0,1-1.222-1.222,1.223,1.223,0,0,1,1.222-1.219h4.736a1.224,1.224,0,0,1,1.219,1.219,1.221,1.221,0,0,1-1.219,1.222Zm0-9.47A1.221,1.221,0,0,1,9.473,24.9a1.222,1.222,0,0,1,1.222-1.219H22.536a1.22,1.22,0,0,1,0,2.441Zm0-9.478a1.221,1.221,0,0,1-1.222-1.22,1.223,1.223,0,0,1,1.222-1.22h2.369a1.22,1.22,0,1,1,0,2.441Z" transform="translate(0 0)" fill="#3c69a8"/>
    </g>
  </g>
</svg>
