<svg xmlns="http://www.w3.org/2000/svg" width="47.97" height="45.83" viewBox="0 0 47.97 45.83">
  <g id="Layer_22" transform="translate(-2.1 -2.736)">
    <circle id="Ellipse_517" data-name="Ellipse 517" cx="2.274" cy="2.274" r="2.274" transform="translate(12.317 24.912)" fill="#3c69a8"/>
    <circle id="Ellipse_518" data-name="Ellipse 518" cx="2.274" cy="2.274" r="2.274" transform="translate(20.583 24.912)" fill="#3c69a8"/>
    <circle id="Ellipse_519" data-name="Ellipse 519" cx="2.274" cy="2.274" r="2.274" transform="translate(28.848 24.912)" fill="#3c69a8"/>
    <path id="Path_306" data-name="Path 306" d="M42.079,24.278a1.553,1.553,0,0,0-1.553,1.553v7.558a3.86,3.86,0,0,1-3.865,3.846H28.5a1.552,1.552,0,0,0-1.1.462l-4.269,4.321a.319.319,0,0,1-.528-.007L18.337,37.7a1.552,1.552,0,0,0-1.1-.462H9.054a3.852,3.852,0,0,1-3.848-3.846V14.3a3.859,3.859,0,0,1,3.848-3.863H23.306a1.553,1.553,0,0,0,0-3.106H9.054A6.971,6.971,0,0,0,2.1,14.306V33.391a6.962,6.962,0,0,0,6.954,6.954h7.53l3.8,3.846a3.492,3.492,0,0,0,2.483,1.039h0A3.479,3.479,0,0,0,25.342,44.2l3.806-3.851h7.513a6.971,6.971,0,0,0,6.971-6.954V25.836a1.556,1.556,0,0,0-1.553-1.558Z" transform="translate(0 3.336)" fill="#3c69a8"/>
    <path id="Path_307" data-name="Path 307" d="M37.289,9.455,32.161,4.327a5.747,5.747,0,0,0-7.937,0l-5.13,5.13a5.613,5.613,0,0,0,0,7.937l5.128,5.128v0a5.615,5.615,0,0,0,7.937,0l5.128-5.13a5.613,5.613,0,0,0,0-7.939Zm-2.2,5.741-5.128,5.13a2.567,2.567,0,0,1-3.544,0v0L21.29,15.2a2.506,2.506,0,0,1,0-3.542l5.13-5.13a2.506,2.506,0,0,1,3.544,0l5.128,5.128a2.506,2.506,0,0,1,0,3.542Z" transform="translate(11.137 0)" fill="#ffce34"/>
    <path id="Path_308" data-name="Path 308" d="M24.329,5.686a1.553,1.553,0,0,0-1.553,1.553v3.68a1.553,1.553,0,0,0,3.106,0V7.239A1.553,1.553,0,0,0,24.329,5.686Z" transform="translate(15 2.14)" fill="#ffce34"/>
    <path id="Path_309" data-name="Path 309" d="M24.329,10.195a1.553,1.553,0,0,0-1.553,1.553v.311a1.553,1.553,0,0,0,3.106,0v-.311A1.554,1.554,0,0,0,24.329,10.195Z" transform="translate(15 5.411)" fill="#ffce34"/>
  </g>
</svg>
