<svg xmlns="http://www.w3.org/2000/svg" width="24" height="24" viewBox="0 0 24 24">
  <path id="lock-hashtag_1_" data-name="lock-hashtag (1)" d="M23,17a1,1,0,0,0,0-2h-.964l.106-.881a1,1,0,0,0-1.986-.238L20.022,15H16.887l.106-.881a1,1,0,0,0-1.986-.238L14.873,15H13.5a1,1,0,0,0,0,2h1.133l-.36,3H13a1,1,0,0,0,0,2h1.032l-.106.881A.95.95,0,0,0,14.921,24a1,1,0,0,0,.991-.881L16.046,22h3.135l-.106.881A.983.983,0,0,0,20.069,24a1,1,0,0,0,.991-.881L21.194,22H22.5a1,1,0,0,0,0-2H21.434l.36-3H23Zm-3.579,3H16.286l.36-3h3.135ZM11,15v2a1,1,0,0,1-2,0V15a1,1,0,0,1,2,0ZM9,22H5a3,3,0,0,1-3-3V13a3,3,0,0,1,3-3H15a2.986,2.986,0,0,1,2.342,1.125A1,1,0,0,0,18.9,9.874,4.977,4.977,0,0,0,17,8.422V7A7,7,0,0,0,3,7V8.424A5,5,0,0,0,0,13v6a5.006,5.006,0,0,0,5,5H9a1,1,0,0,0,0-2ZM5,7A5,5,0,0,1,15,7V8H5Z" fill="#fff" opacity="0.7"/>
</svg>
