<svg xmlns="http://www.w3.org/2000/svg" width="38.375" height="44.742" viewBox="0 0 38.375 44.742">
  <g id="Lock" transform="translate(-54.5 -18.5)">
    <g id="Rubber_Stamp_2_" transform="translate(56 20)">
      <path id="Path_314" data-name="Path 314" d="M256,18.5a1.5,1.5,0,0,1,1.061.439l10.612,10.612a1.5,1.5,0,0,1-1.061,2.561h-7.075a5.043,5.043,0,0,1-5.038-5.037V20a1.5,1.5,0,0,1,1.5-1.5Zm6.991,10.612L257.5,23.621v3.454a2.04,2.04,0,0,0,2.038,2.037Z" transform="translate(-238.313 -20)" fill="#3c69a8"/>
      <path id="Path_315" data-name="Path 315" d="M66.612,63.242H59.537A5.043,5.043,0,0,1,54.5,58.2V23.537A5.043,5.043,0,0,1,59.537,18.5h14.15a1.5,1.5,0,0,1,0,3H59.537A2.04,2.04,0,0,0,57.5,23.537V58.2a2.04,2.04,0,0,0,2.037,2.037h7.075a1.5,1.5,0,0,1,0,3Z" transform="translate(-56 -20)" fill="#3c69a8"/>
      <path id="Line_39" data-name="Line 39" d="M4,1.5H0A1.5,1.5,0,0,1-1.5,0,1.5,1.5,0,0,1,0-1.5H4A1.5,1.5,0,0,1,5.5,0,1.5,1.5,0,0,1,4,1.5Z" transform="translate(8 13.962)" fill="#3c69a8"/>
      <path id="Line_40" data-name="Line 40" d="M8,1.5H0A1.5,1.5,0,0,1-1.5,0,1.5,1.5,0,0,1,0-1.5H8A1.5,1.5,0,0,1,9.5,0,1.5,1.5,0,0,1,8,1.5Z" transform="translate(8 18.962)" fill="#3c69a8"/>
    </g>
    <path id="Line_41" data-name="Line 41" d="M0,4.5A1.5,1.5,0,0,1-1.5,3V0A1.5,1.5,0,0,1,0-1.5,1.5,1.5,0,0,1,1.5,0V3A1.5,1.5,0,0,1,0,4.5Z" transform="translate(83 52.962)" fill="#ffce34"/>
    <path id="Path_316" data-name="Path 316" d="M270.15,347.65H259.538a5.043,5.043,0,0,1-5.038-5.038v-7.075a5.043,5.043,0,0,1,5.038-5.037H270.15a5.043,5.043,0,0,1,5.038,5.037v7.075A5.043,5.043,0,0,1,270.15,347.65ZM259.538,333.5a2.04,2.04,0,0,0-2.038,2.037v7.075a2.04,2.04,0,0,0,2.038,2.038H270.15a2.04,2.04,0,0,0,2.038-2.038v-7.075a2.04,2.04,0,0,0-2.038-2.037Z" transform="translate(-182.313 -284.408)" fill="#ffce34"/>
    <path id="Path_317" data-name="Path 317" d="M306.612,231.4H296a1.5,1.5,0,0,1-1.5-1.5v-4.6a6.806,6.806,0,0,1,13.612,0v4.6A1.5,1.5,0,0,1,306.612,231.4Zm-9.112-3h7.612v-3.1a3.806,3.806,0,0,0-7.612,0Z" transform="translate(-218.775 -182.313)" fill="#ffce34"/>
  </g>
</svg>
