<svg xmlns="http://www.w3.org/2000/svg" width="24" height="23.983" viewBox="0 0 24 23.983">
  <g id="logout_11_" data-name="logout (11)" transform="translate(-3 -3)" opacity="0.7">
    <path id="Path_24081" data-name="Path 24081" d="M14.992,24.319H8.33a2.673,2.673,0,0,1-2.665-2.665V8.33A2.673,2.673,0,0,1,8.33,5.665h6.662a1.332,1.332,0,1,0,0-2.665H8.33A5.328,5.328,0,0,0,3,8.33V21.654a5.328,5.328,0,0,0,5.33,5.33h6.662a1.332,1.332,0,1,0,0-2.665Z" fill="#fff"/>
    <path id="Path_24082" data-name="Path 24082" d="M24.935,12.384l-4-4a1.328,1.328,0,1,0-1.879,1.879l1.719,1.719H9.332a1.332,1.332,0,0,0,0,2.665H20.778l-1.719,1.719a1.327,1.327,0,0,0,0,1.879,1.308,1.308,0,0,0,.946.386,1.365,1.365,0,0,0,.946-.386l4-4a1.327,1.327,0,0,0,0-1.879Z" transform="translate(1.662 1.661)" fill="#fff"/>
  </g>
</svg>
