<svg xmlns="http://www.w3.org/2000/svg" width="25.844" height="26.5" viewBox="0 0 25.844 26.5">
  <g id="user-add" transform="translate(-1.273 -1.001)" opacity="0.7">
    <path id="Path_24078" data-name="Path 24078" d="M10.727,14.622c4.349-.025,6.691-2.374,6.772-6.831C17.426,3.5,14.959,1.029,10.712,1c-4.29.028-6.77,2.627-6.77,6.79,0,4.346,2.484,6.807,6.785,6.832ZM10.712,3.409c2.937.019,4.328,1.425,4.379,4.38-.057,3.083-1.366,4.405-4.363,4.423-3-.018-4.315-1.335-4.376-4.4.06-3.025,1.411-4.383,4.361-4.4Z" transform="translate(0.546)" fill="#fff"/>
    <path id="Path_24079" data-name="Path 24079" d="M11.26,13.661c-6.418.04-9.87,3.505-9.987,10.023a1.205,1.205,0,0,0,1.183,1.226,1.24,1.24,0,0,0,1.226-1.183c.092-5.193,2.5-7.625,7.577-7.656,5.023.031,7.506,2.536,7.595,7.656a1.2,1.2,0,0,0,1.2,1.183h.022a1.2,1.2,0,0,0,1.183-1.226C21.152,17.261,17.606,13.7,11.26,13.661Z" transform="translate(0 2.59)" fill="#fff"/>
    <path id="Path_24080" data-name="Path 24080" d="M23.062,12.267H20.94V10.145a1.2,1.2,0,0,0-2.409,0v2.122H16.41a1.2,1.2,0,0,0,0,2.409h2.121V16.8a1.2,1.2,0,1,0,2.409,0V14.676h2.122a1.2,1.2,0,0,0,0-2.409Z" transform="translate(2.85 1.624)" fill="#fff"/>
  </g>
</svg>
