<svg xmlns="http://www.w3.org/2000/svg" width="39.572" height="44.155" viewBox="0 0 39.572 44.155">
  <g id="writing" transform="translate(-26.57)">
    <g id="Group_141" data-name="Group 141" transform="translate(26.57)">
      <g id="Group_140" data-name="Group 140">
        <path id="Path_234" data-name="Path 234" d="M127.674,201.725A1.725,1.725,0,0,0,125.949,200H108.184a1.725,1.725,0,0,0,0,3.45h17.765A1.725,1.725,0,0,0,127.674,201.725Z" transform="translate(-99.569 -182.752)" fill="#fff"/>
        <path id="Path_235" data-name="Path 235" d="M108.184,280a1.725,1.725,0,1,0,0,3.45h10.79a1.725,1.725,0,1,0,0-3.45Z" transform="translate(-99.569 -255.853)" fill="#fff"/>
        <path id="Path_236" data-name="Path 236" d="M39.238,40.705H33.469a3.454,3.454,0,0,1-3.45-3.45V6.9a3.454,3.454,0,0,1,3.45-3.45H54.675a3.454,3.454,0,0,1,3.45,3.45V17.507a1.725,1.725,0,1,0,3.45,0V6.9a6.907,6.907,0,0,0-6.9-6.9H33.469a6.907,6.907,0,0,0-6.9,6.9V37.256a6.907,6.907,0,0,0,6.9,6.9h5.768a1.725,1.725,0,1,0,0-3.45Z" transform="translate(-26.57 0)" fill="#fff"/>
        <path id="Path_237" data-name="Path 237" d="M262.812,273.537a5.18,5.18,0,0,0-7.316,0l-9.469,9.448a1.725,1.725,0,0,0-.432.72l-2.062,6.789a1.725,1.725,0,0,0,2.111,2.163l6.962-1.928a1.724,1.724,0,0,0,.758-.441l9.45-9.432A5.18,5.18,0,0,0,262.812,273.537Zm-11.565,13.988-3.5.97,1.025-3.374,6.389-6.375,2.44,2.44Zm9.128-9.11-.334.333-2.439-2.439.333-.332a1.725,1.725,0,0,1,2.44,2.438Z" transform="translate(-224.753 -248.565)" fill="#fff"/>
        <path id="Path_238" data-name="Path 238" d="M125.949,120H108.184a1.725,1.725,0,0,0,0,3.45h17.765a1.725,1.725,0,1,0,0-3.45Z" transform="translate(-99.569 -109.651)" fill="#fff"/>
      </g>
    </g>
  </g>
</svg>
